<svg id="visual" viewBox="0 0 1024 720" width="1024" height="720" xmlns="http://www.w3.org/2000/svg" xmlns:xlink="http://www.w3.org/1999/xlink" version="1.1"><rect x="0" y="0" width="1024" height="720" fill="#001220"></rect><path d="M0 473L11.3 486.8C22.7 500.7 45.3 528.3 68.2 536C91 543.7 114 531.3 136.8 519.7C159.7 508 182.3 497 205 505.3C227.7 513.7 250.3 541.3 273 542.5C295.7 543.7 318.3 518.3 341.2 509.2C364 500 387 507 409.8 519.3C432.7 531.7 455.3 549.3 478 547.8C500.7 546.3 523.3 525.7 546 526.5C568.7 527.3 591.3 549.7 614.2 561.7C637 573.7 660 575.3 682.8 575.5C705.7 575.7 728.3 574.3 751 565.8C773.7 557.3 796.3 541.7 819 536.3C841.7 531 864.3 536 887.2 533C910 530 933 519 955.8 508.5C978.7 498 1001.3 488 1012.7 483L1024 478L1024 721L1012.7 721C1001.3 721 978.7 721 955.8 721C933 721 910 721 887.2 721C864.3 721 841.7 721 819 721C796.3 721 773.7 721 751 721C728.3 721 705.7 721 682.8 721C660 721 637 721 614.2 721C591.3 721 568.7 721 546 721C523.3 721 500.7 721 478 721C455.3 721 432.7 721 409.8 721C387 721 364 721 341.2 721C318.3 721 295.7 721 273 721C250.3 721 227.7 721 205 721C182.3 721 159.7 721 136.8 721C114 721 91 721 68.2 721C45.3 721 22.7 721 11.3 721L0 721Z" fill="#8301a6"></path><path d="M0 532L11.3 532.8C22.7 533.7 45.3 535.3 68.2 541.2C91 547 114 557 136.8 553.3C159.7 549.7 182.3 532.3 205 528.8C227.7 525.3 250.3 535.7 273 547.5C295.7 559.3 318.3 572.7 341.2 575.8C364 579 387 572 409.8 567.3C432.7 562.7 455.3 560.3 478 552.5C500.7 544.7 523.3 531.3 546 533.7C568.7 536 591.3 554 614.2 566.7C637 579.3 660 586.7 682.8 578.5C705.7 570.3 728.3 546.7 751 542C773.7 537.3 796.3 551.7 819 550.7C841.7 549.7 864.3 533.3 887.2 529.5C910 525.7 933 534.3 955.8 542.3C978.7 550.3 1001.3 557.7 1012.7 561.3L1024 565L1024 721L1012.7 721C1001.3 721 978.7 721 955.8 721C933 721 910 721 887.2 721C864.3 721 841.7 721 819 721C796.3 721 773.7 721 751 721C728.3 721 705.7 721 682.8 721C660 721 637 721 614.2 721C591.3 721 568.7 721 546 721C523.3 721 500.7 721 478 721C455.3 721 432.7 721 409.8 721C387 721 364 721 341.2 721C318.3 721 295.7 721 273 721C250.3 721 227.7 721 205 721C182.3 721 159.7 721 136.8 721C114 721 91 721 68.2 721C45.3 721 22.7 721 11.3 721L0 721Z" fill="#472284"></path><path d="M0 616L11.3 614C22.7 612 45.3 608 68.2 602.3C91 596.7 114 589.3 136.8 590.5C159.7 591.7 182.3 601.3 205 605.7C227.7 610 250.3 609 273 606.3C295.7 603.7 318.3 599.3 341.2 592.3C364 585.3 387 575.7 409.8 578.2C432.7 580.7 455.3 595.3 478 604.5C500.7 613.7 523.3 617.3 546 614.5C568.7 611.7 591.3 602.3 614.2 594.5C637 586.7 660 580.3 682.8 585.2C705.7 590 728.3 606 751 604.7C773.7 603.3 796.3 584.7 819 577.7C841.7 570.7 864.3 575.3 887.2 582C910 588.7 933 597.3 955.8 601.5C978.7 605.7 1001.3 605.3 1012.7 605.2L1024 605L1024 721L1012.7 721C1001.3 721 978.7 721 955.8 721C933 721 910 721 887.2 721C864.3 721 841.7 721 819 721C796.3 721 773.7 721 751 721C728.3 721 705.7 721 682.8 721C660 721 637 721 614.2 721C591.3 721 568.7 721 546 721C523.3 721 500.7 721 478 721C455.3 721 432.7 721 409.8 721C387 721 364 721 341.2 721C318.3 721 295.7 721 273 721C250.3 721 227.7 721 205 721C182.3 721 159.7 721 136.8 721C114 721 91 721 68.2 721C45.3 721 22.7 721 11.3 721L0 721Z" fill="#1b1f5a"></path><path d="M0 653L11.3 651.8C22.7 650.7 45.3 648.3 68.2 648.3C91 648.3 114 650.7 136.8 653.8C159.7 657 182.3 661 205 656.5C227.7 652 250.3 639 273 632C295.7 625 318.3 624 341.2 627C364 630 387 637 409.8 636.7C432.7 636.3 455.3 628.7 478 631C500.7 633.3 523.3 645.7 546 647.7C568.7 649.7 591.3 641.3 614.2 637C637 632.7 660 632.3 682.8 630.5C705.7 628.7 728.3 625.3 751 630.5C773.7 635.7 796.3 649.3 819 653.8C841.7 658.3 864.3 653.7 887.2 650.7C910 647.7 933 646.3 955.8 645.2C978.7 644 1001.3 643 1012.7 642.5L1024 642L1024 721L1012.7 721C1001.3 721 978.7 721 955.8 721C933 721 910 721 887.2 721C864.3 721 841.7 721 819 721C796.3 721 773.7 721 751 721C728.3 721 705.7 721 682.8 721C660 721 637 721 614.2 721C591.3 721 568.7 721 546 721C523.3 721 500.7 721 478 721C455.3 721 432.7 721 409.8 721C387 721 364 721 341.2 721C318.3 721 295.7 721 273 721C250.3 721 227.7 721 205 721C182.3 721 159.7 721 136.8 721C114 721 91 721 68.2 721C45.3 721 22.7 721 11.3 721L0 721Z" fill="#0b132b"></path></svg>