<svg id="visual" viewBox="0 0 960 540" width="960" height="540" xmlns="http://www.w3.org/2000/svg" xmlns:xlink="http://www.w3.org/1999/xlink" version="1.1"><rect x="0" y="0" width="960" height="540" fill="#001220"></rect><path d="M0 361L17.8 368.3C35.7 375.7 71.3 390.3 106.8 387.8C142.3 385.3 177.7 365.7 213.2 366.7C248.7 367.7 284.3 389.3 320 390.2C355.7 391 391.3 371 426.8 373.2C462.3 375.3 497.7 399.7 533.2 398C568.7 396.3 604.3 368.7 640 355.5C675.7 342.3 711.3 343.7 746.8 354.2C782.3 364.7 817.7 384.3 853.2 392.5C888.7 400.7 924.3 397.3 942.2 395.7L960 394L960 541L942.2 541C924.3 541 888.7 541 853.2 541C817.7 541 782.3 541 746.8 541C711.3 541 675.7 541 640 541C604.3 541 568.7 541 533.2 541C497.7 541 462.3 541 426.8 541C391.3 541 355.7 541 320 541C284.3 541 248.7 541 213.2 541C177.7 541 142.3 541 106.8 541C71.3 541 35.7 541 17.8 541L0 541Z" fill="#00ffd8"></path><path d="M0 386L17.8 384.3C35.7 382.7 71.3 379.3 106.8 378.2C142.3 377 177.7 378 213.2 380.3C248.7 382.7 284.3 386.3 320 401C355.7 415.7 391.3 441.3 426.8 447C462.3 452.7 497.7 438.3 533.2 438.8C568.7 439.3 604.3 454.7 640 457.3C675.7 460 711.3 450 746.8 450.3C782.3 450.7 817.7 461.3 853.2 465.8C888.7 470.3 924.3 468.7 942.2 467.8L960 467L960 541L942.2 541C924.3 541 888.7 541 853.2 541C817.7 541 782.3 541 746.8 541C711.3 541 675.7 541 640 541C604.3 541 568.7 541 533.2 541C497.7 541 462.3 541 426.8 541C391.3 541 355.7 541 320 541C284.3 541 248.7 541 213.2 541C177.7 541 142.3 541 106.8 541C71.3 541 35.7 541 17.8 541L0 541Z" fill="#06e3bd"></path><path d="M0 469L17.8 460.2C35.7 451.3 71.3 433.7 106.8 433.2C142.3 432.7 177.7 449.3 213.2 461.3C248.7 473.3 284.3 480.7 320 477.3C355.7 474 391.3 460 426.8 454.8C462.3 449.7 497.7 453.3 533.2 449.7C568.7 446 604.3 435 640 435.5C675.7 436 711.3 448 746.8 452.8C782.3 457.7 817.7 455.3 853.2 457.7C888.7 460 924.3 467 942.2 470.5L960 474L960 541L942.2 541C924.3 541 888.7 541 853.2 541C817.7 541 782.3 541 746.8 541C711.3 541 675.7 541 640 541C604.3 541 568.7 541 533.2 541C497.7 541 462.3 541 426.8 541C391.3 541 355.7 541 320 541C284.3 541 248.7 541 213.2 541C177.7 541 142.3 541 106.8 541C71.3 541 35.7 541 17.8 541L0 541Z" fill="#07c8a3"></path><path d="M0 461L17.8 460.5C35.7 460 71.3 459 106.8 466C142.3 473 177.7 488 213.2 488.3C248.7 488.7 284.3 474.3 320 469.2C355.7 464 391.3 468 426.8 472.2C462.3 476.3 497.7 480.7 533.2 476.8C568.7 473 604.3 461 640 455.7C675.7 450.3 711.3 451.7 746.8 454C782.3 456.3 817.7 459.7 853.2 462.5C888.7 465.3 924.3 467.7 942.2 468.8L960 470L960 541L942.2 541C924.3 541 888.7 541 853.2 541C817.7 541 782.3 541 746.8 541C711.3 541 675.7 541 640 541C604.3 541 568.7 541 533.2 541C497.7 541 462.3 541 426.8 541C391.3 541 355.7 541 320 541C284.3 541 248.7 541 213.2 541C177.7 541 142.3 541 106.8 541C71.3 541 35.7 541 17.8 541L0 541Z" fill="#04ae8a"></path><path d="M0 516L17.8 516.2C35.7 516.3 71.3 516.7 106.8 511.2C142.3 505.7 177.7 494.3 213.2 493.8C248.7 493.3 284.3 503.7 320 509C355.7 514.3 391.3 514.7 426.8 515.5C462.3 516.3 497.7 517.7 533.2 511.7C568.7 505.7 604.3 492.3 640 491.2C675.7 490 711.3 501 746.8 502.3C782.3 503.7 817.7 495.3 853.2 493.7C888.7 492 924.3 497 942.2 499.5L960 502L960 541L942.2 541C924.3 541 888.7 541 853.2 541C817.7 541 782.3 541 746.8 541C711.3 541 675.7 541 640 541C604.3 541 568.7 541 533.2 541C497.7 541 462.3 541 426.8 541C391.3 541 355.7 541 320 541C284.3 541 248.7 541 213.2 541C177.7 541 142.3 541 106.8 541C71.3 541 35.7 541 17.8 541L0 541Z" fill="#009473"></path></svg>